<svg class="bg social-payment-background" xmlns="http://www.w3.org/2000/svg" xmlns:xlink="http://www.w3.org/1999/xlink" viewBox="0 0 557 480"><defs><rect id="easypay-a" width="508" height="310" x="39" y="81" rx="155"></rect><rect id="easypay-c" width="455" height="378.778" rx="7.778"></rect><filter id="easypay-b" width="137.4%" height="144.9%" x="-18.7%" y="-18%" filterUnits="objectBoundingBox"><feOffset dy="17" in="SourceAlpha" result="shadowOffsetOuter1"></feOffset><feGaussianBlur in="shadowOffsetOuter1" result="shadowBlurOuter1" stdDeviation="25.5"></feGaussianBlur><feColorMatrix in="shadowBlurOuter1" values="0 0 0 0 0   0 0 0 0 0   0 0 0 0 0  0 0 0 0.25 0"></feColorMatrix></filter><polygon id="easypay-d" points=".007 .017 13.969 .017 13.969 13.949 .007 13.949"></polygon><linearGradient id="easypay-f" x1="0%" y1="0%" y2="100%"><stop offset="0%" stop-color="#21254E"></stop><stop offset="100%" stop-color="#2B4A83"></stop></linearGradient><rect id="easypay-g" width="229.444" height="29.556" x="24.111" y="87.111" rx="3.889"></rect><rect id="easypay-h" width="229.444" height="29.556" x="23.333" y="128.333" rx="3.889"></rect><rect id="easypay-i" width="229.444" height="29.556" x="23.333" y="169.556" rx="3.889"></rect><rect id="easypay-j" width="229.444" height="29.556" x="23.333" y="210.778" rx="3.889"></rect><rect id="easypay-k" width="229.444" height="59.111" x="23.333" y="252" rx="3.889"></rect><circle id="easypay-l" cx="35" cy="35" r="35"></circle><filter id="easypay-m" width="138.6%" height="138.6%" x="-19.3%" y="-15%" filterUnits="objectBoundingBox"><feOffset dy="3" in="SourceAlpha" result="shadowOffsetOuter1"></feOffset><feGaussianBlur in="shadowOffsetOuter1" result="shadowBlurOuter1" stdDeviation="4"></feGaussianBlur><feColorMatrix in="shadowBlurOuter1" values="0 0 0 0 0   0 0 0 0 0   0 0 0 0 0  0 0 0 0.1 0"></feColorMatrix></filter><rect id="easypay-o" width="229.444" height="32.667" rx="3.889"></rect><filter id="easypay-n" width="107.8%" height="155.1%" x="-3.9%" y="-18.4%" filterUnits="objectBoundingBox"><feOffset dy="3" in="SourceAlpha" result="shadowOffsetOuter1"></feOffset><feGaussianBlur in="shadowOffsetOuter1" result="shadowBlurOuter1" stdDeviation="2.5"></feGaussianBlur><feColorMatrix in="shadowBlurOuter1" values="0 0 0 0 0   0 0 0 0 0   0 0 0 0 0  0 0 0 0.1 0"></feColorMatrix></filter></defs><g fill="none" fill-rule="evenodd" transform="translate(-15 -13)"><use fill="#FFD23F" transform="scale(-1 1) rotate(-21 0 1816.887)" xlink:href="#easypay-a"></use><g transform="translate(66 47)"><use fill="#000" filter="url(#easypay-b)" xlink:href="#easypay-c"></use><use fill="#FFF" xlink:href="#easypay-c"></use><path stroke="#F2F3F5" stroke-linecap="square" stroke-width=".778" d="M255.111111,47.4444444 L23.3333333,47.4444444"></path><g transform="translate(246.556 16.333)"><path fill="#FFD23F" d="M.400974272.0406847458L4.57718786.0406847458C4.93058592.0406847458 5.11068301.46780339 4.86262476.718650847L.69660534 4.91865085C.445149029 5.17288814.0135956311 4.99661695.0135956311 4.64068475L.00000339805825.440684746C.00000339805825.220345763.176702427.0406847458.400974272.0406847458M13.5616641 13.9830508L9.38205243 13.9830508C9.02865437 13.9830508 8.84855728 13.5559322 9.09661553 13.3050847L13.2592369 9.10508475C13.5106932 8.85084746 13.9422126 9.02711864 13.9422126 9.38305085L13.9558388 13.5830508C13.962635 13.8033898 13.7825379 13.9830508 13.5616641 13.9830508"></path><g transform="translate(0 .017)"><mask id="easypay-e" fill="#fff"><use xlink:href="#easypay-d"></use></mask><path fill="#FFD23F" d="M0.587867476,13.3695051 C-0.186889806,12.5965898 -0.186889806,11.3457763 0.587867476,10.5728949 L10.5883529,0.596623729 C11.3631102,-0.176291525 12.6169937,-0.176291525 13.3883529,0.596623729 C14.1631102,1.36950508 14.1631102,2.62031864 13.3883529,3.38984407 L3.38786748,13.3695051 C2.61650825,14.1423864 1.3592267,14.1423864 0.587867476,13.3695051" mask="url(#easypay-e)"></path></g></g><path fill="url(#easypay-f)" d="M276,0 L447.111111,-8.8817842e-16 C451.406659,-1.6772578e-15 454.888889,3.48222972 454.888889,7.77777778 L454.888889,371 C454.888889,375.295548 451.406659,378.777778 447.111111,378.777778 L276,378.777778 L276,0 Z"></path><g opacity=".552"><use fill="#FFF" xlink:href="#easypay-g"></use><rect width="228.667" height="28.778" x="24.5" y="87.5" stroke="#C5C9CD" stroke-width=".778" rx="3.889"></rect></g><path fill="#F2F3F5" d="M28.7777778,87.8888889 L83.2222222,87.8888889 L83.2222222,115.888889 L28.7777778,115.888889 C26.6300038,115.888889 24.8888889,114.147774 24.8888889,112 L24.8888889,91.7777778 C24.8888889,89.6300038 26.6300038,87.8888889 28.7777778,87.8888889 Z"></path><use fill="#FFF" xlink:href="#easypay-h"></use><rect width="228.667" height="28.778" x="23.722" y="128.722" stroke="#C5C9CD" stroke-width=".778" rx="3.889"></rect><g opacity=".552"><use fill="#FFF" xlink:href="#easypay-i"></use><rect width="228.667" height="28.778" x="23.722" y="169.944" stroke="#C5C9CD" stroke-width=".778" rx="3.889"></rect></g><g opacity=".552"><use fill="#FFF" xlink:href="#easypay-j"></use><rect width="228.667" height="28.778" x="23.722" y="211.167" stroke="#C5C9CD" stroke-width=".778" rx="3.889"></rect></g><g opacity=".552"><use fill="#FFF" xlink:href="#easypay-k"></use><rect width="228.667" height="58.333" x="23.722" y="252.389" stroke="#C5C9CD" stroke-width=".778" rx="3.889"></rect></g><g transform="translate(330.556 38.889)"><use fill="#000" filter="url(#easypay-m)" xlink:href="#easypay-l"></use><use fill="#FFF" xlink:href="#easypay-l"></use></g><text fill="#FFF" font-family="YekanBalkhBold" font-size="9.333"><tspan x="346.435" y="135">پرداخت به</tspan></text><text fill="#FFF" font-family="YekanBalkhBold" font-size="13" font-weight="400"><tspan x="328" y="156">مصطفی امیری</tspan></text><!--g(fill="#FFF" transform="translate(333.054 173)")--><!--    path(d="M7.47114711 9.19184028C7.86177406 8.80121332 8.05708461 8.32986387 8.05708461 7.77777778 8.05708461 7.22569168 7.86177406 6.75434223 7.47114711 6.36371528 7.08052015 5.97308832 6.6091707 5.77777778 6.05708461 5.77777778 5.50499851 5.77777778 5.03364906 5.97308832 4.64302211 6.36371528 4.25239515 6.75434223 4.05708461 7.22569168 4.05708461 7.77777778 4.05708461 8.32986387 4.25239515 8.80121332 4.64302211 9.19184028 5.03364906 9.58246723 5.50499851 9.77777778 6.05708461 9.77777778 6.6091707 9.77777778 7.08052015 9.58246723 7.47114711 9.19184028zM8.23677211 5.59809028C8.83573344 6.19705161 9.13520961 6.92360684 9.13520961 7.77777778 9.13520961 8.63194872 8.83573344 9.35850395 8.23677211 9.95746528 7.63781078 10.5564266 6.91125555 10.8559028 6.05708461 10.8559028 5.20291367 10.8559028 4.47635844 10.5564266 3.87739711 9.95746528 3.27843578 9.35850395 2.97895961 8.63194872 2.97895961 7.77777778 2.97895961 6.92360684 3.27843578 6.19705161 3.87739711 5.59809028 4.47635844 4.99912895 5.20291367 4.69965278 6.05708461 4.69965278 6.91125555 4.69965278 7.63781078 4.99912895 8.23677211 5.59809028zM9.76802211 4.06684028C9.90864781 4.20746598 9.97895961 4.37673512 9.97895961 4.57465278 9.97895961 4.77257043 9.90864781 4.94183957 9.76802211 5.08246528 9.6273964 5.22309098 9.45812726 5.29340278 9.26020961 5.29340278 9.06229195 5.29340278 8.89302281 5.22309098 8.75239711 5.08246528 8.6117714 4.94183957 8.54145961 4.77257043 8.54145961 4.57465278 8.54145961 4.37673512 8.6117714 4.20746598 8.75239711 4.06684028 8.89302281 3.92621457 9.06229195 3.85590278 9.26020961 3.85590278 9.45812726 3.85590278 9.6273964 3.92621457 9.76802211 4.06684028zM6.65083461 2.85590278L6.05708461 2.85590278C6.02062609 2.85590278 5.82140933 2.85460071 5.45942836 2.85199653 5.09744738 2.84939235 4.82271055 2.84939235 4.63520961 2.85199653 4.44770867 2.85460071 4.1964091 2.86241313 3.88130336 2.87543403 3.56619762 2.88845493 3.29797113 2.91449633 3.07661586 2.95355903 2.85526058 2.99262172 2.66906453 3.04079832 2.51802211 3.09809028 2.25760414 3.20225747 2.02843976 3.35329762 1.83052211 3.55121528 1.63260445 3.74913293 1.4815643 3.97829731 1.37739711 4.23871528 1.32010515 4.3897577 1.27192855 4.57595375 1.23286586 4.79730903 1.19380316 5.0186643 1.16776176 5.28689079 1.15474086 5.60199653 1.14171996 5.91710227 1.13390754 6.16840184 1.13130336 6.35590278 1.12869918 6.54340372 1.12869918 6.81814055 1.13130336 7.18012153 1.13390754 7.5421025 1.13520961 7.74131926 1.13520961 7.77777778 1.13520961 7.81423629 1.13390754 8.01345305 1.13130336 8.37543403 1.12869918 8.737415 1.12869918 9.01215184 1.13130336 9.19965278 1.13390754 9.38715372 1.14171996 9.63845329 1.15474086 9.95355903 1.16776176 10.2686648 1.19380316 10.5368913 1.23286586 10.7582465 1.27192855 10.9796018 1.32010515 11.1657979 1.37739711 11.3168403 1.4815643 11.5772582 1.63260445 11.8064226 1.83052211 12.0043403 2.02843976 12.2022579 2.25760414 12.3532981 2.51802211 12.4574653 2.66906453 12.5147572 2.85526058 12.5629338 3.07661586 12.6019965 3.29797113 12.6410592 3.56619762 12.6671006 3.88130336 12.6801215 4.1964091 12.6931424 4.44770867 12.7009548 4.63520961 12.703559 4.82271055 12.7061632 5.09744738 12.7061632 5.45942836 12.703559 5.82140933 12.7009548 6.02062609 12.6996528 6.05708461 12.6996528 6.09354312 12.6996528 6.29275988 12.7009548 6.65474086 12.703559 7.01672183 12.7061632 7.29145867 12.7061632 7.47895961 12.703559 7.66646055 12.7009548 7.91776012 12.6931424 8.23286586 12.6801215 8.5479716 12.6671006 8.81619808 12.6410592 9.03755336 12.6019965 9.25890863 12.5629338 9.44510469 12.5147572 9.59614711 12.4574653 9.85656508 12.3532981 10.0857295 12.2022579 10.2836471 12.0043403 10.4815648 11.8064226 10.6326049 11.5772582 10.7367721 11.3168403 10.7940641 11.1657979 10.8422407 10.9796018 10.8813034 10.7582465 10.9203661 10.5368913 10.9464075 10.2686648 10.9594284 9.95355903 10.9724493 9.63845329 10.9802617 9.38715372 10.9828659 9.19965278 10.98547 9.01215184 10.98547 8.737415 10.9828659 8.37543403 10.9802617 8.01345305 10.9789596 7.81423629 10.9789596 7.77777778 10.9789596 7.74131926 10.9802617 7.5421025 10.9828659 7.18012153 10.98547 6.81814055 10.98547 6.54340372 10.9828659 6.35590278 10.9802617 6.16840184 10.9724493 5.91710227 10.9594284 5.60199653 10.9464075 5.28689079 10.9203661 5.0186643 10.8813034 4.79730903 10.8422407 4.57595375 10.7940641 4.3897577 10.7367721 4.23871528 10.6326049 3.97829731 10.4815648 3.74913293 10.2836471 3.55121528 10.0857295 3.35329762 9.85656508 3.20225747 9.59614711 3.09809028 9.44510469 3.04079832 9.25890863 2.99262172 9.03755336 2.95355903 8.81619808 2.91449633 8.5479716 2.88845493 8.23286586 2.87543403 7.91776012 2.86241313 7.66646055 2.85460071 7.47895961 2.85199653 7.29145867 2.84939235 7.01541976 2.85069442 6.65083461 2.85590278zM12.0180221 5.30121528C12.0440639 5.7595509 12.0570846 6.58506348 12.0570846 7.77777778 12.0570846 8.97049207 12.0440639 9.79600465 12.0180221 10.2543403 11.9659385 11.337679 11.6430251 12.1762123 11.0492721 12.7699653 10.4555191 13.3637182 9.61698586 13.6866317 8.53364711 13.7387153 8.07531148 13.7647571 7.2497989 13.7777778 6.05708461 13.7777778 4.86437031 13.7777778 4.03885773 13.7647571 3.58052211 13.7387153 2.49718336 13.6866317 1.65865008 13.3637182 1.06489711 12.7699653.471144139 12.1762123.148230701 11.337679.0961471075 10.2543403.0701053107 9.79600465.0570846075 8.97049207.0570846075 7.77777778.0570846075 6.58506348.0701053107 5.7595509.0961471075 5.30121528.148230701 4.21787653.471144139 3.37934325 1.06489711 2.78559028 1.65865008 2.19183731 2.49718336 1.86892387 3.58052211 1.81684028 4.03885773 1.79079848 4.86437031 1.77777778 6.05708461 1.77777778 7.2497989 1.77777778 8.07531148 1.79079848 8.53364711 1.81684028 9.61698586 1.86892387 10.4555191 2.19183731 11.0492721 2.78559028 11.6430251 3.37934325 11.9659385 4.21787653 12.0180221 5.30121528zM39.1547209 3.96527778C38.8057609 4.475697 38.3838901 4.91058848 37.8890959 5.26996528 37.8943043 5.34288231 37.8969084 5.45225622 37.8969084 5.59809028 37.8969084 6.275177 37.7979511 6.95095149 37.6000334 7.62543403 37.4021158 8.29991657 37.1013375 8.94704551 36.6976897 9.56684028 36.2940418 10.186635 35.8135779 10.7348066 35.2562834 11.2113715 34.698989 11.6879364 34.0271207 12.0681409 33.2406584 12.3519965 32.4541962 12.6358521 31.6130588 12.7777778 30.7172209 12.7777778 29.3057556 12.7777778 28.0141018 12.4001774 26.8422209 11.6449653 27.0245135 11.6657987 27.2276365 11.6762153 27.4515959 11.6762153 28.6234768 11.6762153 29.6677372 11.3168439 30.5844084 10.5980903 30.0375307 10.5876736 29.5479523 10.4197065 29.1156584 10.094184 28.6833646 9.76866157 28.3864926 9.35330114 28.2250334 8.84809028 28.3969093 8.87413207 28.5557619 8.88715278 28.7015959 8.88715278 28.9255554 8.88715278 29.1469074 8.85850723 29.3656584 8.80121528 28.7823222 8.68142301 28.2992541 8.39106133 27.9164397 7.93012153 27.5336253 7.46918172 27.3422209 6.93403082 27.3422209 6.32465278L27.3422209 6.29340278C27.6963894 6.49132043 28.0765939 6.5980902 28.4828459 6.61371528 28.1390942 6.38454747 27.8656595 6.08507129 27.6625334 5.71527778 27.4594074 5.34548426 27.3578459 4.94444661 27.3578459 4.51215278 27.3578459 4.05381715 27.4724281 3.62934223 27.7015959 3.23871528 28.3318074 4.01476082 29.0987268 4.63584836 30.0023772 5.10199653 30.9060275 5.56814469 31.8734658 5.82725668 32.9047209 5.87934028 32.8630541 5.68142262 32.8422209 5.48871622 32.8422209 5.30121528 32.8422209 4.60329512 33.0883122 4.00824899 33.5805022 3.51605903 34.0726922 3.02386907 34.6677383 2.77777778 35.3656584 2.77777778 36.0948288 2.77777778 36.7094059 3.04340012 37.2094084 3.57465278 37.7771196 3.46527723 38.3109684 3.26215426 38.8109709 2.96527778 38.6182617 3.56423911 38.2484737 4.02777614 37.7015959 4.35590278 38.1859734 4.30381918 38.6703435 4.17361215 39.1547209 3.96527778zM56.5583668 4.8828125L56.5583668 12.625 53.9802418 12.625 53.9802418 4.8828125 56.5583668 4.8828125zM56.7224293 2.4921875C56.7276376 2.87239773 56.5961285 3.19010289 56.327898 3.4453125 56.0596675 3.70052211 55.7068065 3.828125 55.2693043 3.828125L55.2536793 3.828125C54.8265938 3.828125 54.4828473 3.70052211 54.2224293 3.4453125 53.9620113 3.19010289 53.8318043 2.87239773 53.8318043 2.4921875 53.8318043 2.10676891 53.9659175 1.78776168 54.234148 1.53515625 54.5023785 1.28255082 54.8526355 1.15625 55.2849293 1.15625 55.7172231 1.15625 56.0635738 1.28255082 56.3239918 1.53515625 56.5844098 1.78776168 56.7172209 2.10676891 56.7224293 2.4921875zM60.5505543 5.98299953C60.6497666 5.82663201 60.7513282 5.68907091 60.8552418 5.5703125 60.9646173 5.44531187 61.1117513 5.30989656 61.296648 5.1640625 61.4815448 5.01822844 61.708105 4.90494832 61.9763355 4.82421875 62.244566 4.74348918 62.5427401 4.703125 62.8708668 4.703125 63.7614962 4.703125 64.4776349 4.99869496 65.0193043 5.58984375 65.5609737 6.18099254 65.8318043 7.0468693 65.8318043 8.1875L65.8318043 12.625 63.2614918 12.625 63.2614918 8.484375C63.2614918 7.93749727 63.1560241 7.50911613 62.9450855 7.19921875 62.734147 6.88932137 62.4047232 6.734375 61.9568043 6.734375 61.6286776 6.734375 61.3539408 6.82421785 61.1325855 7.00390625 60.9112303 7.18359465 60.7458673 7.40624867 60.6364918 7.671875 60.5791998 7.82812578 60.5505543 8.03906117 60.5505543 8.3046875L60.5505543 12.625 57.9802418 12.625C57.9906585 10.5468646 57.9958668 8.86198562 57.9958668 7.5703125 57.9958668 6.27863938 57.9932626 5.50781375 57.9880543 5.2578125L57.9802418 4.8828125 60.5505543 4.8828125 60.5505543 5.98299953z")--><g transform="translate(23.333 322.778)"><use fill="#000" filter="url(#easypay-n)" xlink:href="#easypay-o"></use><use fill="#2ECC71" xlink:href="#easypay-o"></use><text fill="#FFF" font-family="YekanBalkhMedium" font-size="12.444"><tspan x="95.667" y="19.444">پرداخت</tspan></text></g><text fill="#5A627A" font-family="YekanBalkhBold" font-size="9.333" font-weight="400"><tspan x="23.833" y="69.889">جهت پرداخت وجه به مصطفی امیری ، فرم زیر را تکمیل نمایید.</tspan></text><text fill="#5A627A" font-family="YekanBalkhMedium" font-size="10.889" font-weight="400" letter-spacing="-1.167"><tspan x="163.692" y="105.333">0</tspan></text><text fill="#5A627A" font-family="YekanBalkhMedium" font-size="10.889"><tspan x="168.222" y="145.778">نام پرداخت کننده</tspan></text><text fill="#5A627A" font-family="YekanBalkhMedium" font-size="10.889"><tspan x="185.5" y="187">شماره موبایل</tspan></text><text fill="#5A627A" font-family="YekanBalkhMedium" font-size="10.889"><tspan x="217.056" y="228.222">ایمیل</tspan></text><text fill="#5A627A" font-family="YekanBalkhMedium" font-size="10.889"><tspan x="197" y="269.444">توضیحات</tspan></text><text fill="#5A627A" font-family="YekanBalkhMedium" font-size="10.889"><tspan x="41.278" y="103.778">تومان</tspan></text><text fill="#5A627A" font-family="YekanBalkhBold" font-size="9.333" font-weight="400"><tspan x="74.722" y="25.556">امنیت و ضمانت پرداخت شما</tspan></text><g fill="url(#easypay-f)" transform="translate(188.222 15.556)"><path d="M49.3192071,6.88874242 C49.9612273,6.88874242 50.4816313,7.4095 50.4816313,8.0515202 L50.4816313,14.3037929 C50.4816313,14.9458131 49.9612273,15.4665707 49.3192071,15.4665707 C48.6771869,15.4665707 48.1567828,14.9458131 48.1567828,14.3037929 L48.1567828,8.0515202 C48.1567828,7.4095 48.6771869,6.88874242 49.3192071,6.88874242 Z M9.9369596,1.50217172 L10.0150909,7.99944444 C10.0150909,8.00121212 10.0154444,8.00262626 10.0154444,8.0040404 L10.0154444,10.4063131 C10.0154444,13.1946465 7.76908081,15.4632828 5.0079697,15.4632828 C2.24650505,15.4632828 0.000141414141,13.1946465 0.000141414141,10.4063131 L0.000141414141,6.36222222 C0.000141414141,5.72020202 0.520191919,5.19944444 1.16256566,5.19944444 C1.80458586,5.19944444 2.3249899,5.72020202 2.3249899,6.36222222 L2.3249899,10.4063131 C2.3249899,11.9123737 3.52842424,13.1380808 5.0079697,13.1380808 C6.48680808,13.1380808 7.69059596,11.9123737 7.69059596,10.4063131 L7.69059596,8.06520202 L7.61211111,1.53010101 C7.60433333,0.888080808 8.11837374,0.361313131 8.76074747,0.353535354 C8.76534343,0.353535354 8.76993939,0.353535354 8.77488889,0.353535354 C9.41054545,0.353535354 9.92953535,0.864747475 9.9369596,1.50217172 Z M39.429197,6.88874242 C40.0712172,6.88874242 40.5916212,7.4095 40.5916212,8.0515202 C40.5916212,8.69318687 40.0712172,9.21394444 39.429197,9.21394444 L33.5007626,9.21394444 L33.5007626,10.2098535 C33.5007626,13.1063687 31.144096,15.4630354 28.2475808,15.4630354 C25.3510657,15.4630354 22.994399,13.1063687 22.994399,10.2098535 L22.994399,6.36197475 C22.994399,5.71995455 23.5144495,5.19955051 24.1568232,5.19955051 C24.7988434,5.19955051 25.3192475,5.71995455 25.3192475,6.36197475 L25.3192475,10.2098535 C25.3192475,11.8244495 26.6329848,13.1378333 28.2475808,13.1378333 C29.8621768,13.1378333 31.1759141,11.8244495 31.1759141,10.2098535 L31.1759141,6.36197475 C31.1759141,5.71995455 31.6963182,5.19955051 32.3383384,5.19955051 C32.9807121,5.19955051 33.5007626,5.71995455 33.5007626,6.36197475 L33.5007626,6.88874242 L39.429197,6.88874242 Z M19.5483485,6.88874242 C20.1903687,6.88874242 20.7107727,7.4095 20.7107727,8.0515202 C20.7107727,8.69318687 20.1903687,9.21394444 19.5483485,9.21394444 L13.2957222,9.21394444 L13.2953687,9.21394444 C13.2158232,9.21394444 13.1376919,9.20581313 13.0623889,9.19061111 C13.0418838,9.18636869 13.0235,9.1775303 13.0033485,9.17222727 C12.9496111,9.15808586 12.8955202,9.14429798 12.8449646,9.12308586 C12.8202172,9.11283333 12.798298,9.09727778 12.7742576,9.08490404 C12.7314798,9.06333838 12.6876414,9.04318687 12.6480455,9.01667172 C12.6247121,9.00111616 12.6049141,8.98061111 12.5829949,8.96364141 C12.5465808,8.93500505 12.5091061,8.90778283 12.4762273,8.87561111 C12.4564293,8.85581313 12.4412273,8.83283333 12.423197,8.81197475 C12.3927929,8.77697475 12.3606212,8.74303535 12.3344596,8.70414646 C12.3185505,8.68081313 12.3075909,8.65465152 12.2934495,8.63025758 C12.2701162,8.58995455 12.2453687,8.55106566 12.2269848,8.50793434 C12.2149646,8.47965152 12.2082475,8.44889394 12.198702,8.41955051 C12.1842071,8.37712626 12.1679444,8.33576263 12.1587525,8.29121717 C12.1516818,8.25833838 12.1513283,8.22333838 12.1470859,8.18975253 C12.1424899,8.14838889 12.1336515,8.10808586 12.133298,8.06530808 L12.0551667,1.53020707 C12.0473889,0.888186869 12.5614293,0.361419192 13.203803,0.353641414 C13.2080455,0.353641414 13.2129949,0.353641414 13.2179444,0.353641414 C13.853601,0.353641414 14.3722374,0.864853535 14.3800152,1.50227778 L14.4443586,6.88874242 L19.5483485,6.88874242 Z M44.171202,6.88874242 C44.8132222,6.88874242 45.3336263,7.4095 45.3336263,8.0515202 L45.3336263,14.3037929 C45.3336263,14.9458131 44.8132222,15.4665707 44.171202,15.4665707 C43.5291818,15.4665707 43.0087778,14.9458131 43.0087778,14.3037929 L43.0087778,8.0515202 C43.0087778,7.4095 43.5291818,6.88874242 44.171202,6.88874242 Z M28.2465909,9.14355556 C27.9602273,9.14355556 27.677399,9.02688889 27.4758838,8.82537374 C27.2708333,8.62032323 27.1541667,8.33749495 27.1541667,8.05113131 C27.1541667,7.76476768 27.2708333,7.48193939 27.4758838,7.28042424 C27.8789141,6.87385859 28.6142677,6.87032323 29.0208333,7.28042424 C29.2223485,7.48193939 29.3390152,7.76476768 29.3390152,8.05113131 C29.3390152,8.33749495 29.2223485,8.62032323 29.0208333,8.82537374 C28.8157828,9.02688889 28.5364899,9.14355556 28.2465909,9.14355556 Z M49.3171566,5.49153535 C49.0307929,5.49153535 48.7483182,5.37486869 48.5464495,5.17335354 C48.3449343,4.96830303 48.2247323,4.68547475 48.2247323,4.39911111 C48.2247323,4.11274747 48.3449343,3.82991919 48.5464495,3.62840404 C48.8009949,3.37385859 49.1792778,3.25719192 49.5328131,3.32789899 C49.6038737,3.3420404 49.6706919,3.36325253 49.7378636,3.39153535 C49.8015,3.41981818 49.8654899,3.45163636 49.9255909,3.49052525 C49.9856919,3.53294949 50.0422576,3.57890909 50.091399,3.62840404 C50.2932677,3.82991919 50.4099343,4.11274747 50.4099343,4.39911111 C50.4099343,4.6890101 50.2932677,4.96830303 50.091399,5.17335354 C50.0422576,5.22284848 49.9856919,5.26880808 49.9255909,5.30769697 C49.8654899,5.34658586 49.8015,5.38193939 49.7378636,5.41022222 C49.6706919,5.4349697 49.6003384,5.45618182 49.5328131,5.47032323 C49.4621061,5.48446465 49.3878636,5.49153535 49.3171566,5.49153535 Z M17.5555758,13.8350051 C17.5838586,13.9021768 17.6015354,13.9693485 17.6156768,14.0400556 C17.6298182,14.1107626 17.6404242,14.1814697 17.6404242,14.2521768 C17.6404242,14.3228838 17.6298182,14.3971263 17.6156768,14.4678333 C17.6015354,14.5350051 17.5838586,14.6057121 17.5555758,14.6693485 C17.5272929,14.7365202 17.4954747,14.8001566 17.4569394,14.8602576 C17.4145152,14.9203586 17.3685556,14.9733889 17.3187071,15.0264192 C17.2692121,15.0759141 17.2126465,15.1218737 17.1525455,15.1607626 C17.0924444,15.1996515 17.0291616,15.2350051 16.9651717,15.2632879 C16.8983535,15.2880354 16.8308283,15.3092475 16.7601212,15.3233889 C16.6894141,15.3375303 16.6190606,15.344601 16.548,15.344601 C16.4772929,15.344601 16.4030505,15.3375303 16.3323434,15.3233889 C16.2655253,15.3092475 16.1944646,15.2880354 16.1311818,15.2632879 C16.0636566,15.2350051 16.0003737,15.1996515 15.9402727,15.1607626 C15.8801717,15.1218737 15.8236061,15.0759141 15.7737576,15.0264192 C15.7242626,14.9733889 15.678303,14.9203586 15.6394141,14.8602576 C15.6008788,14.8001566 15.5651717,14.7365202 15.5368889,14.6693485 C15.5124949,14.6057121 15.4909293,14.5350051 15.4767879,14.4678333 C15.4626465,14.3971263 15.4559293,14.3228838 15.4559293,14.2521768 C15.4559293,14.1814697 15.4626465,14.1107626 15.4767879,14.0400556 C15.4909293,13.9693485 15.5124949,13.9021768 15.5368889,13.8350051 C15.5651717,13.7713687 15.6008788,13.7077323 15.6394141,13.6476313 C15.678303,13.5875303 15.7242626,13.5309646 15.7737576,13.4814697 C15.8236061,13.4319747 15.8801717,13.3860152 15.9402727,13.3435909 C16.0003737,13.304702 16.0636566,13.2728838 16.1272929,13.244601 C16.1944646,13.2163182 16.2655253,13.1951061 16.3323434,13.1809646 C16.4737576,13.1526818 16.6190606,13.1526818 16.7601212,13.1809646 C16.8308283,13.1951061 16.8983535,13.2163182 16.9651717,13.244601 C17.0291616,13.2728838 17.0924444,13.304702 17.1525455,13.3435909 C17.2126465,13.3860152 17.2692121,13.4319747 17.3187071,13.4814697 C17.3685556,13.5309646 17.4145152,13.5875303 17.4569394,13.6476313 C17.4954747,13.7077323 17.5272929,13.7713687 17.5555758,13.8350051 Z M39.429197,11.1372121 C39.9319242,11.1372121 40.339197,11.5448384 40.339197,12.0475657 C40.339197,12.5502929 39.9319242,12.9575657 39.429197,12.9575657 L36.3028838,12.9575657 C35.8001566,12.9575657 35.3928838,12.5502929 35.3928838,12.0475657 C35.3928838,11.5448384 35.8001566,11.1372121 36.3028838,11.1372121 L39.429197,11.1372121 Z M18.1104141,10.7727879 C18.6131414,10.7727879 19.0204141,11.1804141 19.0204141,11.6831414 C19.0204141,12.1858687 18.6131414,12.5931414 18.1104141,12.5931414 L14.984101,12.5931414 C14.4813737,12.5931414 14.074101,12.1858687 14.074101,11.6831414 C14.074101,11.1804141 14.4813737,10.7727879 14.984101,10.7727879 L18.1104141,10.7727879 Z"></path></g></g></g></svg>
